HIERARCHY
ROOT Hips
{
	OFFSET 51.542301 1.902891 53.584000
	CHANNELS 6 Xposition Yposition Zposition Xrotation Yrotation Zrotation
	JOINT spine
	{
		OFFSET 0.000000 -0.393701 6.846371
		CHANNELS 3 Xrotation Yrotation Zrotation
		JOINT spine1
		{
			OFFSET 0.000000 -0.000002 9.496212
			CHANNELS 3 Xrotation Yrotation Zrotation
			JOINT spine2
			{
				OFFSET 0.000000 -0.000001 9.099091
				CHANNELS 3 Xrotation Yrotation Zrotation
				JOINT Neck
				{
					OFFSET 0.000000 -1.113784 23.361198
					CHANNELS 3 Xrotation Yrotation Zrotation
					JOINT Head
					{
						OFFSET 0.000000 -0.000001 7.058022
						CHANNELS 3 Xrotation Yrotation Zrotation
						End Site
						{
							OFFSET 0.000000 5.634188 17.084404
						}
					}
				}
				JOINT RightShoulder
				{
					OFFSET -3.831360 0.533489 9.826309
					CHANNELS 3 Xrotation Yrotation Zrotation
					JOINT RightArm
					{
						OFFSET 0.000000 -0.000002 12.888100
						CHANNELS 3 Xrotation Yrotation Zrotation
						JOINT RightArmRoll
						{
							OFFSET 0.000000 -0.000001 6.506172
							CHANNELS 3 Xrotation Yrotation Zrotation
							JOINT RightForeArm
							{
								OFFSET 0.000000 -0.000003 18.950096
								CHANNELS 3 Xrotation Yrotation Zrotation
								JOINT RightForeArmRoll
								{
									OFFSET 0.000000 -0.000001 7.300934
									CHANNELS 3 Xrotation Yrotation Zrotation
									JOINT RightHand
									{
										OFFSET 0.000000 -0.000002 14.651398
										CHANNELS 3 Xrotation Yrotation Zrotation
										End Site
										{
											OFFSET 0.000000 0.000000 0.100006
										}
									}
								}
							}
						}
					}
				}
				JOINT LeftShoulder
				{
					OFFSET 3.831360 0.533489 9.826309
					CHANNELS 3 Xrotation Yrotation Zrotation
					JOINT LeftArm
					{
						OFFSET 0.000000 -0.000002 12.888100
						CHANNELS 3 Xrotation Yrotation Zrotation
						JOINT LeftArmRoll
						{
							OFFSET 0.000000 -0.000001 6.506172
							CHANNELS 3 Xrotation Yrotation Zrotation
							JOINT LeftForeArm
							{
								OFFSET 0.000000 -0.000003 18.950096
								CHANNELS 3 Xrotation Yrotation Zrotation
								JOINT LeftForeArmRoll
								{
									OFFSET 0.000000 -0.000001 7.300934
									CHANNELS 3 Xrotation Yrotation Zrotation
									JOINT LeftHand
									{
										OFFSET 0.000000 -0.000002 14.651398
										CHANNELS 3 Xrotation Yrotation Zrotation
										End Site
										{
											OFFSET 0.000000 0.000000 0.100006
										}
									}
								}
							}
						}
					}
				}
			}
		}
	}
	JOINT RightUpLeg
	{
		OFFSET -6.068371 0.933477 -1.112782
		CHANNELS 3 Xrotation Yrotation Zrotation
		JOINT RightUpLegRoll
		{
			OFFSET 0.000000 -0.000003 17.179600
			CHANNELS 3 Xrotation Yrotation Zrotation
			JOINT RightLeg
			{
				OFFSET 0.000000 0.000004 -21.274300
				CHANNELS 3 Xrotation Yrotation Zrotation
				JOINT RightLegRoll
				{
					OFFSET 0.000000 -0.000004 21.343903
					CHANNELS 3 Xrotation Yrotation Zrotation
					JOINT RightFoot
					{
						OFFSET 0.000000 -0.000003 17.765198
						CHANNELS 3 Xrotation Yrotation Zrotation
						JOINT RightToeBase
						{
							OFFSET 0.000000 -0.000002 14.850800
							CHANNELS 3 Xrotation Yrotation Zrotation
							End Site
							{
								OFFSET 0.006294 0.829004 7.192139
							}
						}
					}
				}
			}
		}
	}
	JOINT LeftUpLeg
	{
		OFFSET 6.068371 0.933477 -1.112782
		CHANNELS 3 Xrotation Yrotation Zrotation
		JOINT LeftUpLegRoll
		{
			OFFSET 0.000000 -0.000003 17.179699
			CHANNELS 3 Xrotation Yrotation Zrotation
			JOINT LeftLeg
			{
				OFFSET 0.000000 -0.000003 21.274200
				CHANNELS 3 Xrotation Yrotation Zrotation
				JOINT LeftLegRoll
				{
					OFFSET 0.000000 -0.000004 21.541199
					CHANNELS 3 Xrotation Yrotation Zrotation
					JOINT LeftFoot
					{
						OFFSET 0.000000 -0.000003 17.567894
						CHANNELS 3 Xrotation Yrotation Zrotation
						JOINT LeftToeBase
						{
							OFFSET 0.000000 -0.000002 14.850800
							CHANNELS 3 Xrotation Yrotation Zrotation
							End Site
							{
								OFFSET -0.028210 0.829004 7.192139
							}
						}
					}
				}
			}
		}
	}
}
MOTION
Frames: 6
Frame Time: 0.041667
50.055698 -30.450411 87.089203 1.891693 -1.133471 -4.070676 -1.993498 -1.304391 1.114491 0.041131 -2.626980 2.197215 1.686408 -2.600476 2.228526 9.943360 14.212039 -2.385765 11.692816 -11.834009 -1.591148 -11.470523 -50.909088 -13.110846 -62.220360 -139.736163 -67.229163 0.000003 -0.000000 -0.000005 1.569668 -25.278798 1.915897 0.000006 -0.000015 -3.008880 -5.000182 -7.999938 0.000097 -27.888130 73.344231 32.122889 102.250288 43.888641 -108.896390 -0.000001 0.000002 0.000004 0.215442 27.243536 -0.975855 0.000012 -0.000002 3.037949 -5.000159 8.000187 -0.000083 -16.963531 -174.555087 -0.977341 -179.999991 0.000005 -0.810001 161.065368 -3.406614 -1.169799 -0.000004 0.000000 0.205952 68.442375 6.209910 3.908940 25.456957 -7.355613 0.000011 -12.777103 177.464297 0.681251 -0.000003 0.000011 -0.846265 -19.812589 1.773907 1.036949 -0.000002 -0.000006 -0.301287 73.185477 -5.927096 -4.605670 25.456960 7.355613 -0.000001 
50.057701 -30.450716 87.104691 1.896655 -1.135117 -4.066794 -1.994438 -1.304360 1.114571 0.039272 -2.627870 2.197340 1.684547 -2.601358 2.228658 9.971797 14.208581 -2.390700 11.687897 -11.831369 -1.593192 -11.476907 -50.916782 -13.119180 -62.212027 -139.646551 -67.185292 0.000003 -0.000001 -0.000005 1.553461 -25.279367 1.912368 0.000006 -0.000014 -3.008877 -5.000186 -7.999941 0.000098 -27.886366 73.346929 32.120812 102.245835 43.944962 -108.941148 0.000001 0.000001 0.000003 0.215442 27.225040 -0.963715 0.000011 -0.000002 3.038290 -5.000157 8.000189 -0.000083 -16.970974 -174.551467 -0.972275 -179.999991 0.000005 -0.810001 161.062855 -3.412249 -1.169886 -0.000004 0.000000 0.205952 68.442341 6.211264 3.905600 25.456953 -7.355613 0.000011 -12.784400 177.465335 0.683242 -0.000003 0.000011 -0.846264 -19.813090 1.774109 1.036925 -0.000002 -0.000006 -0.301288 73.183653 -5.926103 -4.605818 25.456962 7.355615 -0.000001 
50.055401 -30.440416 87.091492 1.901795 -1.136783 -4.062816 -1.995489 -1.304319 1.114729 0.037169 -2.628760 2.197634 1.682446 -2.602250 2.228969 10.001474 14.204678 -2.396005 11.682046 -11.828473 -1.595567 -11.483549 -50.924962 -13.127860 -62.203926 -139.555791 -67.141388 -0.000001 -0.000002 -0.000004 1.537203 -25.279935 1.908857 0.000008 -0.000013 -3.008879 -5.000186 -7.999940 0.000099 -27.883583 73.349777 32.117612 102.240555 44.001892 -108.984868 0.000002 0.000002 0.000004 0.215442 27.206640 -0.951358 0.000009 -0.000002 3.038629 -5.000158 8.000189 -0.000082 -16.978845 -174.546905 -0.967525 -179.999991 0.000005 -0.810001 161.060041 -3.416923 -1.170673 -0.000004 0.000000 0.205951 68.442396 6.212592 3.902251 25.456952 -7.355614 0.000012 -12.792190 177.467371 0.684983 -0.000003 0.000011 -0.846265 -19.813996 1.774447 1.036899 -0.000002 -0.000005 -0.301288 73.182137 -5.925099 -4.605752 25.456962 7.355613 -0.000001 
50.053596 -30.440416 87.086395 1.907045 -1.138478 -4.058776 -1.996637 -1.304258 1.114955 0.034894 -2.629671 2.198051 1.680175 -2.603152 2.229382 10.032023 14.200533 -2.401582 11.675464 -11.825410 -1.598188 -11.490391 -50.933626 -13.136817 -62.196290 -139.464144 -67.097852 0.000000 -0.000001 -0.000004 1.520936 -25.280707 1.905354 0.000006 -0.000013 -3.008878 -5.000183 -7.999941 0.000097 -27.880243 73.352823 32.113791 102.235317 44.059109 -109.028759 0.000003 0.000002 0.000003 0.215440 27.188239 -0.938846 0.000015 -0.000002 3.038970 -5.000163 8.000189 -0.000082 -16.987017 -174.542356 -0.962792 -179.999991 0.000005 -0.810001 161.057049 -3.421593 -1.171475 -0.000004 0.000000 0.205952 68.442334 6.213911 3.899008 25.456952 -7.355616 0.000012 -12.800074 177.469406 0.686700 -0.000002 0.000011 -0.846264 -19.815204 1.774894 1.036880 -0.000002 -0.000006 -0.301287 73.180935 -5.924084 -4.605465 25.456960 7.355614 -0.000001 
50.047001 -30.452818 87.088593 1.912380 -1.140184 -4.054692 -1.997829 -1.304197 1.115210 0.032521 -2.630580 2.198523 1.677793 -2.604056 2.229870 10.063077 14.196260 -2.407314 11.668481 -11.822266 -1.600942 -11.497328 -50.942478 -13.145900 -62.188490 -139.372155 -67.053955 0.000002 -0.000001 -0.000004 1.504653 -25.281471 1.901866 0.000011 -0.000013 -3.008879 -5.000187 -7.999939 0.000098 -27.876290 73.355836 32.109300 102.231054 44.116308 -109.074057 0.000004 0.000002 0.000003 0.215446 27.169941 -0.926247 0.000010 -0.000000 3.039299 -5.000156 8.000186 -0.000082 -16.995257 -174.538777 -0.957767 -179.999991 0.000005 -0.810001 161.053962 -3.426261 -1.172283 -0.000004 0.000000 0.205952 68.442184 6.215255 3.895773 25.456948 -7.355614 0.000011 -12.808171 177.470444 0.688628 -0.000002 0.000011 -0.846265 -19.816710 1.775386 1.036861 -0.000003 -0.000006 -0.301287 73.179753 -5.923095 -4.605181 25.456957 7.355614 -0.000001 
50.046394 -30.447115 87.079994 1.917724 -1.141889 -4.050609 -1.999039 -1.304137 1.115474 0.030123 -2.631490 2.199013 1.675402 -2.604968 2.230378 10.094244 14.191887 -2.413068 11.661392 -11.819125 -1.603727 -11.504299 -50.951429 -13.155038 -62.181503 -139.279551 -67.011273 0.000001 -0.000002 -0.000003 1.488368 -25.282235 1.898376 0.000010 -0.000016 -3.008880 -5.000187 -7.999937 0.000097 -27.872382 73.358957 32.104853 102.226779 44.173610 -109.119280 0.000005 0.000001 0.000003 0.215446 27.151546 -0.913627 0.000011 -0.000001 3.039629 -5.000157 8.000189 -0.000081 -17.003532 -174.534242 -0.953036 -179.999991 0.000005 -0.810001 161.050738 -3.430925 -1.173097 -0.000004 0.000000 0.205952 68.442136 6.216574 3.892525 25.456950 -7.355614 0.000011 -12.816262 177.472494 0.690325 -0.000003 0.000011 -0.846265 -19.818117 1.775897 1.036840 -0.000002 -0.000005 -0.301288 73.178654 -5.922081 -4.604886 25.456959 7.355614 -0.000001 
